<svg id="Layer_1" data-name="Layer 1" xmlns="http://www.w3.org/2000/svg" viewBox="0 0 38.99 38.98"><defs><style>.cls-1,.cls-2{fill:#fff;}.cls-1{stroke:#000;stroke-miterlimit:10;stroke-width:5px;}.cls-3{fill:#b3b3b3;}</style></defs><path class="cls-1" d="M617.5,416" transform="translate(-672.76 -437.75)"/><path class="cls-1" d="M640,392" transform="translate(-672.76 -437.75)"/><path class="cls-1" d="M615.5,367.5" transform="translate(-672.76 -437.75)"/><path class="cls-1" d="M591,392" transform="translate(-672.76 -437.75)"/><path class="cls-2" d="M700.67,441.77a11.24,11.24,0,0,1,7,7" transform="translate(-672.76 -437.75)"/><path class="cls-3" d="M700,444.18c.27.09.52.19.78.29l-.6-.25a11.77,11.77,0,0,1,2.47,1.45l-.51-.39a12,12,0,0,1,2,2l-.39-.51a11.59,11.59,0,0,1,1.45,2.47l-.25-.59c.11.25.21.51.3.77a2.65,2.65,0,0,0,1.15,1.5,2.57,2.57,0,0,0,1.92.25,2.54,2.54,0,0,0,1.75-3.08,14.13,14.13,0,0,0-3.34-5.41,13.92,13.92,0,0,0-5.41-3.33,2.48,2.48,0,0,0-1.92.25,2.52,2.52,0,0,0-1.15,1.49,2.56,2.56,0,0,0,1.74,3.08Z" transform="translate(-672.76 -437.75)"/><path d="M707.75,457.25a15.5,15.5,0,1,1-15.5-15.5c2.57,0,2.58-4,0-4a19.5,19.5,0,1,0,19.5,19.5c0-2.57-4-2.58-4,0Z" transform="translate(-672.76 -437.75)"/><path d="M688,448.51v17a.25.25,0,0,0,.4.21l11.33-8.5a.24.24,0,0,0,0-.4l-11.33-8.5A.25.25,0,0,0,688,448.51Z" transform="translate(-672.76 -437.75)"/></svg>